<svg width="95" height="21" viewBox="0 0 95 21" fill="none" xmlns="http://www.w3.org/2000/svg">
<path fill-rule="evenodd" clip-rule="evenodd" d="M31.8275 3.09668H33.6406C33.7111 3.09668 33.7688 3.15434 33.7688 3.22482V5.51119C33.7688 5.58167 33.7111 5.63933 33.6406 5.63933H31.8275C31.745 5.63933 31.6778 5.7066 31.6778 5.78908V13.1808C31.6778 13.2633 31.745 13.3305 31.8275 13.3305H33.635C33.7055 13.3305 33.7631 13.3882 33.7631 13.4587V15.7354C33.7631 15.8059 33.7055 15.8636 33.635 15.8636H31.1356C30.0393 15.8636 29.1447 14.969 29.1447 13.8727V0.129598C29.1447 0.0591248 29.2024 0.00146484 29.2729 0.00146484H31.5496C31.6201 0.00146484 31.6778 0.0591248 31.6778 0.129598V2.94693C31.6778 3.02941 31.745 3.09668 31.8275 3.09668ZM49.4923 0.00146484H51.7691C51.8398 0.00146484 51.8972 0.0588321 51.8972 0.129598V15.7354C51.8972 15.8062 51.8398 15.8636 51.7691 15.8636H49.4923C49.4215 15.8636 49.3642 15.8062 49.3642 15.7354V0.129598C49.3642 0.0588321 49.4215 0.00146484 49.4923 0.00146484ZM11.9877 0.928833C11.0379 0.928833 10.2675 1.69923 10.2675 2.64902C10.2675 3.59881 11.0379 4.36921 11.9877 4.36921C12.9375 4.36921 13.7079 3.59881 13.7079 2.64902C13.7079 1.69923 12.9375 0.928833 11.9877 0.928833ZM94.2364 3.09427C94.2829 3.09427 94.3197 3.11349 94.3446 3.15273V3.15353C94.3694 3.19277 94.3726 3.23361 94.3534 3.27606L86.9144 19.6195C86.8928 19.6675 86.8504 19.6947 86.7975 19.6947H84.5183C84.4719 19.6947 84.4351 19.6755 84.4102 19.6363C84.3854 19.597 84.3822 19.5562 84.4014 19.5137L86.3659 14.9314C86.3695 14.9233 86.3737 14.915 86.3779 14.9067C86.395 14.8732 86.4127 14.8385 86.3979 14.8064L81.158 3.27526C81.1396 3.23281 81.1428 3.19197 81.1676 3.15273C81.1933 3.11429 81.2293 3.09427 81.2758 3.09427H83.8801C83.9329 3.09427 83.9754 3.1215 83.997 3.17035L87.6087 11.6087C87.6336 11.664 87.7233 11.7529 87.8009 11.5711L91.4039 3.16955C91.4255 3.1215 91.468 3.09427 91.5208 3.09427H94.2364ZM20.9786 3.09348C17.7617 3.09348 15.0373 5.49358 14.6424 8.6881C14.6104 8.94997 14.5936 9.21425 14.5936 9.47852C14.5936 9.7428 14.6096 10.0071 14.6424 10.2689C15.0373 13.4635 17.7617 15.8636 20.9786 15.8636C22.6772 15.8636 24.2925 15.1949 25.4929 13.9936L25.7852 13.7005C25.8349 13.6509 25.8349 13.5692 25.7852 13.5187L24.1764 11.9091C24.1267 11.8594 24.045 11.8594 23.9946 11.9091L23.7015 12.2022C23.2818 12.6218 22.7789 12.9333 22.2311 13.1215L22.1959 13.1335C21.8131 13.2609 21.4039 13.3297 20.9778 13.3297C20.0889 13.3297 19.2464 13.0222 18.5769 12.4905C18.0756 12.0916 17.6712 11.5671 17.4165 10.9513C17.4146 10.9474 17.4132 10.943 17.4119 10.939L17.4109 10.936C17.2267 10.4868 17.1258 9.99426 17.1258 9.47852C17.1258 8.96279 17.2275 8.47027 17.4117 8.02021L17.4165 8.00579C17.6688 7.39396 18.0692 6.87261 18.5665 6.4746H18.5681C19.228 5.94365 20.0657 5.62652 20.9778 5.62652C21.89 5.62652 22.7172 5.93644 23.3875 6.473C23.8849 6.87101 24.2861 7.39315 24.5391 8.00499L24.5409 8.0098C24.5422 8.013 24.5434 8.0162 24.5439 8.01941C24.5696 8.08267 24.5944 8.14674 24.6168 8.21161H18.7595C18.7595 8.21161 18.4232 8.77139 18.4232 9.47772C18.4232 10.277 18.7595 10.7446 18.7595 10.7446H27.1418C27.2075 10.7446 27.2612 10.6974 27.2692 10.6317L27.314 10.2681C27.3469 10.0063 27.3629 9.742 27.3629 9.47772C27.3629 9.21345 27.3469 8.94917 27.314 8.6873C26.9192 5.49278 24.1948 3.09268 20.9778 3.09268L20.9786 3.09348ZM10.2627 14.5854L11.4015 15.9597L12.827 17.6782C12.8702 17.7311 12.8614 17.8088 12.8078 17.8504C11.3719 18.9484 9.63807 19.6859 7.73449 19.9206C7.30204 19.9742 6.86558 20.0015 6.43073 20.0015C5.99588 20.0015 5.56023 19.9742 5.12778 19.9206C3.22019 19.6851 1.48479 18.9452 0.0472938 17.8448C-0.00716282 17.8032 -0.015972 17.7247 0.0280738 17.6718L1.38468 16.0437C1.42553 15.9949 1.4976 15.9869 1.54886 16.0253C2.65 16.8502 3.97137 17.4036 5.42008 17.5829C5.75563 17.6238 6.09198 17.6446 6.43073 17.6446C6.76948 17.6446 7.10664 17.6238 7.44299 17.5829C8.12049 17.4997 8.76916 17.3331 9.381 17.096L8.36154 15.5664C7.99556 15.6818 7.61516 15.7659 7.22196 15.8147C6.96008 15.8475 6.69581 15.8636 6.43153 15.8636C6.16726 15.8636 5.90218 15.8467 5.64031 15.8147C2.44579 15.4199 0.046493 12.6955 0.046493 9.47852C0.046493 6.26157 2.44579 3.53714 5.64111 3.14233C5.90378 3.10949 6.16806 3.09348 6.43233 3.09348C6.69661 3.09348 6.96088 3.10949 7.22276 3.14233C10.4173 3.53714 12.8166 6.26157 12.8166 9.47852C12.8166 11.5479 11.8219 13.413 10.2627 14.5854ZM6.43073 13.3305C6.64375 13.3305 6.85678 13.3121 7.06659 13.2777L7.06579 13.2769C8.92132 12.9693 10.2819 11.3364 10.2819 9.47771C10.2819 7.61898 8.94855 6.01411 7.11625 5.68737L7.06579 5.67936C6.85598 5.64493 6.64375 5.62731 6.43073 5.62731C6.21771 5.62731 6.00469 5.64573 5.79487 5.68017C3.93934 5.98769 2.57873 7.62138 2.57873 9.47932C2.57873 11.3372 3.91051 12.9413 5.74122 13.2697L5.79487 13.2785C6.00549 13.3129 6.21771 13.3305 6.43073 13.3305ZM60.8545 3.14233C60.5926 3.10949 60.3284 3.09348 60.0641 3.09348C59.7998 3.09348 59.5355 3.10949 59.2729 3.14233C56.0783 3.53714 53.679 6.26157 53.679 9.47852C53.679 12.6955 56.0783 15.4199 59.2729 15.8147C59.5347 15.8467 59.799 15.8636 60.0641 15.8636C60.3292 15.8636 60.5926 15.8475 60.8545 15.8147C64.049 15.4199 66.4483 12.6955 66.4483 9.47852C66.4483 6.26157 64.049 3.53714 60.8545 3.14233ZM60.6992 13.2777C60.4893 13.3121 60.2763 13.3305 60.0633 13.3305C59.8503 13.3305 59.638 13.3129 59.4274 13.2785L59.3738 13.2697C57.5431 12.9413 56.2113 11.3372 56.2113 9.47932C56.2113 7.62138 57.5719 5.98769 59.4274 5.68017C59.6372 5.64573 59.8503 5.62731 60.0633 5.62731C60.2763 5.62731 60.4885 5.64493 60.6983 5.67937L60.7488 5.68737C62.5811 6.01411 63.9145 7.61898 63.9145 9.47772C63.9145 11.3364 62.5539 12.9693 60.6983 13.2769L60.6992 13.2777ZM44.7458 2.64901C44.7458 1.69923 45.5154 0.929626 46.4651 0.929626C47.4149 0.929626 48.1845 1.69923 48.1845 2.64901C48.1845 3.5988 47.4149 4.3684 46.4651 4.3684C45.5154 4.3684 44.7458 3.5988 44.7458 2.64901ZM45.8821 15.9596L45.8805 15.9612L44.7402 14.5862C46.2994 13.4138 47.294 11.5487 47.294 9.47931C47.294 6.26236 44.8947 3.53793 41.7002 3.14312C41.4383 3.11029 41.174 3.09427 40.9098 3.09427C40.6455 3.09427 40.3812 3.11029 40.1185 3.14312C36.924 3.53793 34.5247 6.26236 34.5247 9.47931C34.5247 12.6963 36.924 15.4207 40.1185 15.8155C40.3804 15.8475 40.6455 15.8643 40.9098 15.8643C41.174 15.8643 41.4383 15.8483 41.7002 15.8155C42.0934 15.7666 42.4738 15.6826 42.8398 15.5672L43.86 17.0976C43.249 17.3339 42.6003 17.5005 41.9244 17.5837C41.5881 17.6246 41.2509 17.6454 40.9122 17.6454C40.5734 17.6454 40.2371 17.6246 39.9015 17.5837C38.4528 17.4044 37.1314 16.851 36.0303 16.0261C35.979 15.9877 35.907 15.9957 35.8661 16.0445L34.5103 17.6718C34.4663 17.7247 34.4751 17.8032 34.5295 17.8448C35.967 18.9452 37.7024 19.6851 39.61 19.9206C40.0425 19.9742 40.4781 20.0015 40.913 20.0015C41.3478 20.0015 41.7843 19.9742 42.2167 19.9206C44.1203 19.6859 45.8541 18.9484 47.29 17.8504C47.3437 17.8088 47.3525 17.7311 47.3092 17.6782L45.8837 15.9596H45.8821ZM41.5448 13.2777C41.335 13.3121 41.122 13.3305 40.909 13.3305C40.6959 13.3305 40.4837 13.3129 40.2731 13.2785L40.2194 13.2697C38.3887 12.9413 37.057 11.3372 37.057 9.47931C37.057 7.62138 38.4176 5.98768 40.2731 5.68016C40.4829 5.64572 40.6959 5.6273 40.909 5.6273C41.122 5.6273 41.3342 5.64492 41.544 5.67936L41.5945 5.68737C43.4268 6.01411 44.7602 7.61897 44.7602 9.47771C44.7602 11.3364 43.3996 12.9693 41.544 13.2769L41.5448 13.2777ZM74.8555 3.09348C75.1198 3.09348 75.384 3.1095 75.6459 3.14233L75.6451 3.14313C78.8396 3.53794 81.2389 6.26238 81.2389 9.47932C81.2389 12.6963 78.8396 15.4207 75.6451 15.8155C75.3832 15.8483 75.1198 15.8644 74.8547 15.8644C74.5896 15.8644 74.3253 15.8475 74.0635 15.8155C70.8689 15.4207 68.4696 12.6963 68.4696 9.47932C68.4696 9.4605 68.47 9.44188 68.4704 9.42326C68.4708 9.40464 68.4712 9.38602 68.4712 9.3672C68.4704 9.3616 68.4696 9.35599 68.4696 9.35039V0.129598C68.4696 0.0591248 68.5273 0.00146484 68.5978 0.00146484H70.8745C70.945 0.00146484 71.0027 0.0591248 71.0027 0.129598V9.47772C71.0027 11.3357 72.3344 12.9397 74.1652 13.2681L74.2188 13.2769C74.4294 13.3113 74.6417 13.3289 74.8547 13.3289C75.0677 13.3289 75.2807 13.3105 75.4905 13.2761C77.3461 12.9685 78.7067 11.3357 78.7067 9.47692C78.7067 7.61819 77.3733 6.01332 75.541 5.68658L75.4905 5.67857C75.2807 5.64413 75.0685 5.62651 74.8555 5.62651C74.6425 5.62651 74.4294 5.64493 74.2196 5.67937C73.5998 5.78188 73.036 6.03094 72.5595 6.3857C72.4618 6.45858 72.3224 6.3857 72.3224 6.26398V3.71493C72.3224 3.65486 72.3585 3.59961 72.4145 3.57638C72.9319 3.36256 73.4853 3.21361 74.0643 3.14233C74.3269 3.1095 74.5912 3.09348 74.8555 3.09348Z" fill="#8222D2"/>
</svg>
